<?xml version="1.0" standalone="no"?>
<!DOCTYPE svg PUBLIC "-//W3C//DTD SVG 20010904//EN"
 "http://www.w3.org/TR/2001/REC-SVG-20010904/DTD/svg10.dtd">
<svg version="1.0" xmlns="http://www.w3.org/2000/svg"
 width="689.000000pt" height="698.000000pt" viewBox="0 0 689.000000 698.000000"
 preserveAspectRatio="xMidYMid meet">
<metadata>
Created by potrace 1.16, written by Peter Selinger 2001-2019
</metadata>
<g transform="translate(0.000000,698.000000) scale(0.100000,-0.100000)"
fill="#000000" stroke="none">
<path d="M3496 6283 c-3 -60 -6 -173 -7 -252 -1 -138 0 -145 19 -148 12 -1 23
1 25 5 3 4 8 118 12 255 l7 247 -24 0 c-25 0 -25 -2 -32 -107z"/>
<path d="M2995 6327 c-227 -110 -167 -454 84 -484 120 -14 239 64 275 182 16
48 17 65 7 113 -15 78 -56 140 -115 177 -42 25 -61 30 -125 33 -64 2 -84 -1
-126 -21z m227 -63 c55 -38 88 -102 88 -168 -1 -156 -185 -254 -312 -166 -105
72 -118 231 -26 317 65 61 176 69 250 17z"/>
<path d="M3666 6232 c-2 -4 -14 -83 -26 -176 -17 -138 -19 -171 -8 -177 25
-16 36 -9 42 29 9 57 36 284 36 303 0 16 -36 33 -44 21z"/>
<path d="M3843 6197 c3 -12 13 -102 23 -199 10 -98 21 -178 25 -178 12 0 264
271 264 283 0 7 -10 13 -21 15 -16 2 -45 -22 -113 -94 -50 -54 -93 -96 -95
-93 -2 2 -10 60 -17 129 -7 69 -16 130 -21 136 -5 7 -18 14 -29 17 -17 5 -20
2 -16 -16z"/>
<path d="M4292 5979 c-65 -19 -132 -113 -132 -185 0 -114 126 -211 237 -182
48 12 62 30 43 53 -9 11 -17 12 -30 5 -55 -29 -150 2 -182 61 -20 36 -20 101
1 122 7 7 52 -17 143 -76 l133 -86 17 37 c44 95 3 197 -97 243 -44 20 -82 22
-133 8z m116 -53 c47 -25 74 -62 79 -110 4 -33 2 -46 -7 -46 -15 0 -209 122
-210 132 0 13 54 37 83 38 15 0 40 -6 55 -14z"/>
<path d="M2452 5958 c-7 -7 -12 -16 -12 -20 0 -4 43 -73 96 -152 87 -131 98
-144 115 -133 11 7 17 18 14 25 -9 24 -187 292 -194 292 -4 0 -12 -5 -19 -12z"/>
<path d="M2283 5843 c-18 -7 -16 -23 4 -45 15 -17 14 -18 -23 -18 -48 0 -92
-26 -130 -76 -25 -33 -29 -46 -29 -104 0 -76 22 -119 83 -161 51 -35 153 -34
205 1 41 28 77 86 77 124 0 30 7 32 30 11 15 -14 19 -13 34 4 16 18 12 24
-105 145 -67 69 -124 126 -128 125 -3 0 -12 -3 -18 -6z m67 -122 c134 -71 88
-261 -63 -261 -19 0 -49 10 -68 23 -93 62 -87 189 12 239 44 23 76 23 119 -1z"/>
<path d="M4580 5614 c-122 -124 -123 -125 -104 -145 19 -19 21 -18 143 111
102 109 121 133 111 145 -7 8 -16 15 -19 15 -4 0 -63 -57 -131 -126z"/>
<path d="M3219 5654 c-320 -57 -614 -240 -812 -503 -124 -164 -207 -355 -242
-555 -22 -130 -23 -2059 0 -2189 88 -507 465 -914 964 -1042 717 -184 1449
284 1592 1017 17 90 19 162 20 1115 1 984 0 1021 -19 1118 -54 269 -169 483
-362 675 -205 204 -446 328 -717 369 -98 15 -331 12 -424 -5z m529 -68 c179
-47 305 -109 461 -227 186 -139 340 -355 415 -579 67 -202 66 -174 66 -1286 0
-948 -1 -1009 -19 -1101 -50 -254 -160 -461 -341 -644 -112 -112 -201 -177
-335 -243 -201 -100 -357 -132 -603 -123 -289 10 -514 95 -741 281 -203 166
-344 390 -419 664 l-27 97 -3 1034 c-2 902 -1 1045 13 1124 86 499 476 907
966 1011 41 8 85 17 99 20 14 2 102 3 195 1 146 -2 185 -7 273 -29z"/>
<path d="M3397 5283 c-17 -16 -1 -40 83 -122 l90 -88 0 -436 c0 -241 -3 -437
-7 -437 -5 0 -24 16 -43 36 -86 89 -166 124 -279 124 -181 0 -290 -122 -360
-401 -45 -179 -63 -365 -68 -714 -11 -661 40 -1105 153 -1342 52 -109 109
-163 195 -183 118 -29 239 10 341 109 34 34 63 61 65 61 1 0 4 -39 5 -87 l3
-88 248 -3 c216 -2 248 0 253 13 4 10 -18 42 -63 93 -38 42 -79 90 -91 106
l-22 28 0 1660 c0 913 -3 1664 -6 1669 -6 10 -487 12 -497 2z m12 -1147 c71
-37 136 -151 151 -265 5 -36 8 -430 7 -876 -2 -804 -3 -810 -24 -875 -44 -128
-109 -195 -191 -195 -35 0 -48 5 -68 28 -76 89 -98 394 -91 1262 5 601 12 713
53 837 30 90 90 121 163 84z"/>
<path d="M4740 5558 c-41 -33 -97 -79 -124 -102 -26 -22 -52 -42 -57 -44 -12
-5 -11 -14 6 -36 13 -17 18 -15 87 42 128 104 179 122 224 77 14 -14 31 -25
39 -25 46 0 10 69 -44 83 -24 6 -30 11 -23 20 11 13 -7 47 -24 47 -5 -1 -43
-28 -84 -62z"/>
<path d="M1835 5415 c-64 -17 -123 -80 -183 -193 l-42 -81 212 -108 c117 -59
215 -109 218 -111 12 -5 110 206 116 249 21 150 -160 287 -321 244z m150 -69
c86 -39 127 -109 111 -188 -7 -35 -66 -168 -74 -168 -9 0 -316 161 -327 171
-6 6 1 29 20 65 73 134 159 172 270 120z"/>
<path d="M4860 5337 c-42 -20 -66 -40 -94 -81 -55 -82 -24 -205 64 -255 38
-21 41 -25 24 -34 -11 -5 -20 -11 -22 -13 -2 -1 1 -12 7 -23 11 -20 17 -18
171 59 88 44 160 83 160 86 0 3 -5 14 -10 25 -9 15 -15 17 -30 9 -27 -15 -29
-13 -21 23 29 133 -126 261 -249 204z m128 -57 c74 -33 100 -127 55 -198 -53
-84 -196 -79 -240 8 -38 74 2 170 82 198 43 15 55 14 103 -8z"/>
<path d="M1510 3472 c-63 -62 -66 -132 -9 -197 59 -67 142 -57 212 28 108 131
136 148 178 106 27 -27 20 -75 -17 -107 -25 -22 -25 -24 -9 -42 16 -17 20 -18
38 -5 35 25 57 68 57 113 0 37 -6 50 -34 78 -29 29 -41 34 -81 34 -52 0 -67
-12 -163 -128 -63 -76 -127 -83 -159 -17 -14 29 -14 38 -3 65 7 17 25 39 39
48 14 9 27 17 29 18 7 5 -19 44 -30 44 -5 0 -27 -17 -48 -38z"/>
<path d="M5230 3417 c-19 -12 -60 -55 -93 -95 -51 -62 -63 -72 -91 -72 -41 0
-56 15 -56 59 0 24 8 43 27 63 25 26 26 30 11 44 -21 21 -49 6 -77 -40 -57
-91 13 -201 116 -181 27 5 48 19 78 53 131 150 155 164 205 114 43 -43 41 -80
-9 -125 -37 -33 -39 -46 -15 -76 7 -8 75 52 89 79 31 59 13 137 -41 179 -36
29 -101 28 -144 -2z"/>
<path d="M1648 3150 c-193 -48 -250 -297 -100 -432 51 -46 98 -61 182 -56 87
5 151 42 195 113 27 44 30 56 30 134 0 76 -3 91 -26 126 -32 49 -52 67 -105
94 -48 25 -124 34 -176 21z m179 -86 c124 -98 103 -279 -39 -339 -82 -34 -190
-5 -235 64 -52 77 -53 161 -2 230 43 61 90 82 171 78 57 -2 72 -7 105 -33z"/>
<path d="M5069 3092 c-234 -122 -150 -471 114 -472 181 0 300 190 223 356 -60
128 -213 181 -337 116z m213 -53 c86 -44 122 -163 77 -256 -83 -171 -338 -132
-374 58 -13 70 35 167 99 201 57 31 133 30 198 -3z"/>
<path d="M1680 2581 l-205 -16 3 -70 c5 -101 17 -139 57 -174 30 -26 44 -31
86 -31 44 0 55 4 83 33 18 17 35 38 37 46 4 10 12 9 39 -8 45 -27 79 -27 121
2 46 31 61 79 53 168 l-7 69 -31 -1 c-17 -1 -123 -9 -236 -18z m220 -95 c0
-64 -16 -86 -64 -86 -45 0 -68 28 -74 90 l-5 50 72 0 71 0 0 -54z m-196 13
c15 -76 -27 -159 -81 -159 -57 0 -93 55 -93 142 l0 37 63 4 c34 2 72 4 83 5
17 2 23 -5 28 -29z"/>
<path d="M4942 2534 l3 -29 140 -6 c77 -4 183 -8 235 -10 l95 -4 3 26 3 26
-193 7 c-106 4 -215 9 -241 12 l-49 6 4 -28z"/>
<path d="M5360 2373 c-20 -101 -26 -118 -41 -116 -8 1 -98 18 -201 38 -104 20
-192 33 -198 30 -8 -5 -15 -45 -7 -45 1 0 105 -20 231 -45 126 -25 230 -44
232 -42 4 5 45 219 42 222 -2 1 -13 6 -25 9 -19 6 -22 2 -33 -51z"/>
<path d="M1765 2259 c-93 -26 -187 -53 -207 -59 -31 -9 -38 -16 -38 -35 0 -31
1 -31 110 0 49 14 94 25 99 25 23 0 9 -26 -69 -131 -75 -100 -80 -110 -73
-140 l9 -32 79 106 c44 59 82 107 85 107 3 0 13 -19 23 -40 54 -116 236 -80
237 47 0 15 -10 67 -22 116 -19 74 -26 87 -43 86 -11 -1 -96 -23 -190 -50z
m189 -67 c22 -78 20 -99 -9 -127 -52 -53 -111 -19 -139 79 -10 32 -15 60 -13
63 6 5 117 41 133 42 6 1 19 -25 28 -57z"/>
<path d="M4885 2189 c-4 -11 -5 -22 -3 -24 1 -1 104 -30 227 -64 227 -62 240
-63 241 -24 0 7 -24 19 -52 27 -158 46 -383 106 -394 106 -7 0 -16 -9 -19 -21z"/>
<path d="M4894 2085 c-157 -94 -169 -333 -21 -432 70 -47 139 -60 211 -39 127
37 209 179 182 318 -10 51 -20 62 -44 49 -18 -10 -20 -16 -12 -37 38 -99 -19
-226 -122 -268 -52 -22 -95 -20 -155 8 -89 42 -130 135 -103 234 14 53 70 117
116 134 25 9 34 18 34 35 0 31 -32 30 -86 -2z"/>
<path d="M1935 1873 c-77 -7 -184 -19 -238 -26 l-98 -12 17 -23 c15 -21 20
-22 102 -16 l87 6 45 -78 c25 -43 46 -81 48 -85 2 -4 -18 -39 -43 -78 -42 -66
-45 -73 -32 -96 l13 -26 46 68 c186 272 248 366 248 374 0 11 -17 10 -195 -8z"/>
<path d="M2043 1546 c-157 -154 -167 -166 -151 -181 15 -16 18 -16 50 9 18 14
73 66 123 115 49 50 91 88 93 86 3 -2 -3 -98 -13 -212 -9 -115 -15 -218 -14
-229 3 -18 33 6 177 145 l174 166 -22 20 -21 19 -124 -124 -125 -125 1 35 c0
19 8 124 18 233 9 109 14 200 9 203 -4 3 -83 -69 -175 -160z"/>
<path d="M4510 1512 c-41 -23 -75 -82 -66 -117 9 -36 43 -63 90 -73 l41 -8 5
-83 c6 -78 8 -85 38 -112 26 -23 42 -29 79 -29 42 0 51 4 88 44 32 33 46 58
57 102 l14 59 40 -3 c29 -2 47 3 68 19 27 21 27 23 10 30 -10 4 -40 8 -66 8
l-47 1 6 35 c5 32 4 35 -20 35 -22 0 -27 -6 -33 -35 -6 -31 -10 -35 -39 -35
-18 0 -53 3 -79 6 l-46 7 0 44 c0 54 -23 101 -56 113 -35 14 -44 13 -84 -8z
m288 -218 c2 -1 -3 -27 -12 -58 -25 -86 -90 -122 -136 -76 -15 15 -20 33 -20
78 0 32 2 61 5 64 5 5 157 -2 163 -8z"/>
<path d="M2424 1346 c-156 -73 -192 -302 -64 -409 65 -55 109 -71 192 -72 42
0 79 2 82 5 3 3 3 15 0 26 -5 19 -13 21 -77 20 -81 0 -114 13 -163 66 -45 47
-56 73 -56 132 -1 132 112 223 243 195 66 -14 144 -86 154 -143 6 -29 12 -36
31 -36 13 0 24 -1 24 -2 0 -2 -25 -84 -55 -183 -30 -98 -53 -180 -52 -181 6
-5 242 -74 252 -74 7 0 15 9 18 21 6 23 2 25 -113 59 -41 12 -79 25 -83 30 -8
7 28 147 42 162 4 4 49 -6 101 -22 101 -32 120 -32 120 -2 0 14 -20 24 -92 47
-51 16 -97 32 -101 35 -11 10 24 130 38 130 6 0 53 -13 105 -30 96 -29 114
-28 107 9 -2 15 -243 95 -257 86 -4 -3 -11 -19 -15 -37 l-7 -33 -17 49 c-49
141 -222 215 -357 152z"/>
<path d="M4106 1261 c-63 -42 -74 -110 -26 -165 24 -26 45 -38 98 -51 151 -38
192 -65 178 -120 -15 -60 -92 -86 -144 -49 -22 15 -24 15 -37 -2 -20 -27 -19
-30 18 -47 80 -37 136 -28 186 28 26 30 31 44 31 85 0 84 -50 123 -192 150
-76 14 -108 37 -108 80 0 45 39 67 93 52 36 -9 44 -9 55 5 18 24 15 30 -19 42
-48 17 -101 13 -133 -8z"/>
<path d="M3836 1193 c-7 -27 -103 -423 -111 -462 -7 -33 -7 -34 21 -27 16 4
29 8 30 9 1 1 10 38 20 82 l19 80 75 17 c121 26 120 27 175 -47 27 -36 54 -65
60 -64 49 3 44 13 -112 222 -85 114 -158 207 -163 207 -5 0 -11 -8 -14 -17z"/>
<path d="M3514 1144 c-7 -3 -5 -30 7 -87 26 -120 32 -110 -73 -130 -51 -9
-102 -20 -114 -23 -19 -5 -22 2 -39 91 -18 93 -20 96 -45 93 -14 -2 -25 -7
-24 -13 1 -5 21 -110 45 -232 l44 -223 28 0 c15 0 27 3 27 7 0 3 -10 53 -22
109 -12 57 -19 107 -15 110 7 8 173 43 203 44 18 0 23 -9 34 -62 30 -159 29
-155 56 -150 13 2 24 7 24 11 0 3 -21 108 -47 234 -47 232 -50 237 -89 221z"/>
<path d="M3106 1113 c-10 -36 -88 -445 -84 -447 5 -5 221 -47 223 -44 1 2 5
13 9 24 8 26 3 28 -97 44 -42 7 -77 16 -77 19 0 4 18 95 40 204 22 108 40 201
40 207 0 18 -48 11 -54 -7z"/>
</g>
</svg>
